<svg xmlns="http://www.w3.org/2000/svg" xmlns:xlink="http://www.w3.org/1999/xlink" width="360" height="640" viewBox="0 0 360 640">
  <defs>
    <filter id="Rectangle_1" x="-6" y="583" width="372" height="60" filterUnits="userSpaceOnUse">
      <feOffset dy="-3" input="SourceAlpha"/>
      <feGaussianBlur stdDeviation="2" result="blur"/>
      <feFlood flood-opacity="0.161"/>
      <feComposite operator="in" in2="blur"/>
      <feComposite in="SourceGraphic"/>
    </filter>
    <clipPath id="clip-path">
      <rect width="24" height="24" fill="none"/>
    </clipPath>
    <clipPath id="clip-path-3">
      <rect width="30" height="30" fill="none"/>
    </clipPath>
    <clipPath id="clip-Android_Mobile_4">
      <rect width="360" height="640"/>
    </clipPath>
  </defs>
  <g id="Android_Mobile_4" data-name="Android Mobile – 4" clip-path="url(#clip-Android_Mobile_4)">
    <rect width="360" height="640" fill="#fff"/>
    <g transform="matrix(1, 0, 0, 1, 0, 0)" filter="url(#Rectangle_1)">
      <g id="Rectangle_1-2" data-name="Rectangle 1" transform="translate(0 592)" fill="#900" stroke="#707070" stroke-width="1">
        <rect width="360" height="48" stroke="none"/>
        <rect x="0.5" y="0.5" width="359" height="47" fill="none"/>
      </g>
    </g>
    <g id="Group_3" data-name="Group 3" transform="translate(-5 2)">
      <text id="TILBAGE" transform="translate(45 621)" fill="#fff" font-size="17" font-family="NeoSansPro-Regular, Neo Sans Pro" letter-spacing="0.07em"><tspan x="0" y="0">TILBAGE</tspan></text>
      <g id="Icon_Keyboard_Arrow_-_Left_Two-toned" data-name="Icon / Keyboard Arrow - Left / Two-toned" transform="translate(21 603)" clip-path="url(#clip-path)">
        <rect id="Box" width="24" height="24" fill="none"/>
        <path id="Icon_Keyboard_Arrow_-_Up_Dark" data-name="Icon / Keyboard Arrow - Up / Dark" d="M10.6,7.4,6,2.8,1.4,7.4,0,6,6,0l6,6Z" transform="translate(8.3 17.7) rotate(-90)" fill="#fff"/>
      </g>
    </g>
    <g id="Group_2" data-name="Group 2" transform="translate(-5 2)">
      <text id="FREM" transform="translate(325 621)" fill="#fff" font-size="17" font-family="NeoSansPro-Regular, Neo Sans Pro" letter-spacing="0.07em"><tspan x="-45.866" y="0">FREM</tspan></text>
      <g id="Icon_Keyboard_Arrow_-_Left_Two-toned-2" data-name="Icon / Keyboard Arrow - Left / Two-toned" transform="translate(349 627) rotate(180)" clip-path="url(#clip-path)">
        <rect id="Box-2" data-name="Box" width="24" height="24" fill="none"/>
        <path id="Icon_Keyboard_Arrow_-_Up_Dark-2" data-name="Icon / Keyboard Arrow - Up / Dark" d="M10.6,7.4,6,2.8,1.4,7.4,0,6,6,0l6,6Z" transform="translate(8.3 17.7) rotate(-90)" fill="#fff"/>
      </g>
    </g>
    <g id="Ellipse_1" data-name="Ellipse 1" transform="translate(150 612)" fill="none" stroke="#fff" stroke-width="1">
      <circle cx="4" cy="4" r="4" stroke="none"/>
      <circle cx="4" cy="4" r="3.5" fill="none"/>
    </g>
    <g id="Ellipse_2" data-name="Ellipse 2" transform="translate(167.055 612)" fill="none" stroke="#fff" stroke-width="1">
      <circle cx="4" cy="4" r="4" stroke="none"/>
      <circle cx="4" cy="4" r="3.5" fill="none"/>
    </g>
    <g id="Ellipse_3" data-name="Ellipse 3" transform="translate(184.11 612)" fill="#fff" stroke="#fff" stroke-width="1">
      <circle cx="4" cy="4" r="4" stroke="none"/>
      <circle cx="4" cy="4" r="3.5" fill="none"/>
    </g>
    <g id="Ellipse_4" data-name="Ellipse 4" transform="translate(201.165 612)" fill="none" stroke="#fff" stroke-width="1">
      <circle cx="4" cy="4" r="4" stroke="none"/>
      <circle cx="4" cy="4" r="3.5" fill="none"/>
    </g>
    <text id="Har_du_preferencer_om_skemaplacering_" data-name="Har du preferencer
om skemaplacering?" transform="translate(180 71)" fill="#707070" font-size="30" font-family="NeoSansPro-Regular, Neo Sans Pro"><tspan x="-122.595" y="0">Har du preferencer</tspan><tspan x="-132.435" y="42">om skemaplacering?</tspan></text>
    <g id="Selection_Control_Checkbox_Off_Enabled" data-name="Selection Control / Checkbox / Off / Enabled" transform="translate(83 280)" clip-path="url(#clip-path-3)">
      <path id="Selection_Control_Checkbox_Off_Enabled-2" data-name="Selection Control / Checkbox / Off / Enabled" d="M32.667-621.667v23.333H9.333v-23.333Zm0-3.333H9.333A3.343,3.343,0,0,0,6-621.667v23.333A3.343,3.343,0,0,0,9.333-595H32.667A3.343,3.343,0,0,0,36-598.333v-23.333A3.343,3.343,0,0,0,32.667-625Z" transform="translate(-6 625)" fill="#747474"/>
    </g>
    <g id="Selection_Control_Checkbox_Off_Enabled-3" data-name="Selection Control / Checkbox / Off / Enabled" transform="translate(138 280)" clip-path="url(#clip-path-3)">
      <path id="Selection_Control_Checkbox_Off_Enabled-4" data-name="Selection Control / Checkbox / Off / Enabled" d="M32.667-621.667v23.333H9.333v-23.333Zm0-3.333H9.333A3.343,3.343,0,0,0,6-621.667v23.333A3.343,3.343,0,0,0,9.333-595H32.667A3.343,3.343,0,0,0,36-598.333v-23.333A3.343,3.343,0,0,0,32.667-625Z" transform="translate(-6 625)" fill="#747474"/>
    </g>
    <g id="Selection_Control_Checkbox_Off_Enabled-5" data-name="Selection Control / Checkbox / Off / Enabled" transform="translate(193 280)" clip-path="url(#clip-path-3)">
      <path id="Selection_Control_Checkbox_Off_Enabled-6" data-name="Selection Control / Checkbox / Off / Enabled" d="M32.667-621.667v23.333H9.333v-23.333Zm0-3.333H9.333A3.343,3.343,0,0,0,6-621.667v23.333A3.343,3.343,0,0,0,9.333-595H32.667A3.343,3.343,0,0,0,36-598.333v-23.333A3.343,3.343,0,0,0,32.667-625Z" transform="translate(-6 625)" fill="#747474"/>
    </g>
    <g id="Selection_Control_Checkbox_Off_Enabled-7" data-name="Selection Control / Checkbox / Off / Enabled" transform="translate(248 280)" clip-path="url(#clip-path-3)">
      <path id="Selection_Control_Checkbox_Off_Enabled-8" data-name="Selection Control / Checkbox / Off / Enabled" d="M32.667-621.667v23.333H9.333v-23.333Zm0-3.333H9.333A3.343,3.343,0,0,0,6-621.667v23.333A3.343,3.343,0,0,0,9.333-595H32.667A3.343,3.343,0,0,0,36-598.333v-23.333A3.343,3.343,0,0,0,32.667-625Z" transform="translate(-6 625)" fill="#747474"/>
    </g>
    <g id="Selection_Control_Checkbox_Off_Enabled-9" data-name="Selection Control / Checkbox / Off / Enabled" transform="translate(303 280)" clip-path="url(#clip-path-3)">
      <path id="Selection_Control_Checkbox_Off_Enabled-10" data-name="Selection Control / Checkbox / Off / Enabled" d="M32.667-621.667v23.333H9.333v-23.333Zm0-3.333H9.333A3.343,3.343,0,0,0,6-621.667v23.333A3.343,3.343,0,0,0,9.333-595H32.667A3.343,3.343,0,0,0,36-598.333v-23.333A3.343,3.343,0,0,0,32.667-625Z" transform="translate(-6 625)" fill="#747474"/>
    </g>
    <g id="Selection_Control_Checkbox_Off_Enabled-11" data-name="Selection Control / Checkbox / Off / Enabled" transform="translate(83 335)" clip-path="url(#clip-path-3)">
      <path id="Selection_Control_Checkbox_Off_Enabled-12" data-name="Selection Control / Checkbox / Off / Enabled" d="M32.667-621.667v23.333H9.333v-23.333Zm0-3.333H9.333A3.343,3.343,0,0,0,6-621.667v23.333A3.343,3.343,0,0,0,9.333-595H32.667A3.343,3.343,0,0,0,36-598.333v-23.333A3.343,3.343,0,0,0,32.667-625Z" transform="translate(-6 625)" fill="#747474"/>
    </g>
    <g id="Selection_Control_Checkbox_Off_Enabled-13" data-name="Selection Control / Checkbox / Off / Enabled" transform="translate(138 335)" clip-path="url(#clip-path-3)">
      <path id="Selection_Control_Checkbox_Off_Enabled-14" data-name="Selection Control / Checkbox / Off / Enabled" d="M32.667-621.667v23.333H9.333v-23.333Zm0-3.333H9.333A3.343,3.343,0,0,0,6-621.667v23.333A3.343,3.343,0,0,0,9.333-595H32.667A3.343,3.343,0,0,0,36-598.333v-23.333A3.343,3.343,0,0,0,32.667-625Z" transform="translate(-6 625)" fill="#747474"/>
    </g>
    <g id="Selection_Control_Checkbox_Off_Enabled-15" data-name="Selection Control / Checkbox / Off / Enabled" transform="translate(193 335)" clip-path="url(#clip-path-3)">
      <path id="Selection_Control_Checkbox_Off_Enabled-16" data-name="Selection Control / Checkbox / Off / Enabled" d="M32.667-621.667v23.333H9.333v-23.333Zm0-3.333H9.333A3.343,3.343,0,0,0,6-621.667v23.333A3.343,3.343,0,0,0,9.333-595H32.667A3.343,3.343,0,0,0,36-598.333v-23.333A3.343,3.343,0,0,0,32.667-625Z" transform="translate(-6 625)" fill="#747474"/>
    </g>
    <g id="Selection_Control_Checkbox_Off_Enabled-17" data-name="Selection Control / Checkbox / Off / Enabled" transform="translate(248 335)" clip-path="url(#clip-path-3)">
      <path id="Selection_Control_Checkbox_Off_Enabled-18" data-name="Selection Control / Checkbox / Off / Enabled" d="M32.667-621.667v23.333H9.333v-23.333Zm0-3.333H9.333A3.343,3.343,0,0,0,6-621.667v23.333A3.343,3.343,0,0,0,9.333-595H32.667A3.343,3.343,0,0,0,36-598.333v-23.333A3.343,3.343,0,0,0,32.667-625Z" transform="translate(-6 625)" fill="#747474"/>
    </g>
    <g id="Selection_Control_Checkbox_Off_Enabled-19" data-name="Selection Control / Checkbox / Off / Enabled" transform="translate(303 335)" clip-path="url(#clip-path-3)">
      <path id="Selection_Control_Checkbox_Off_Enabled-20" data-name="Selection Control / Checkbox / Off / Enabled" d="M32.667-621.667v23.333H9.333v-23.333Zm0-3.333H9.333A3.343,3.343,0,0,0,6-621.667v23.333A3.343,3.343,0,0,0,9.333-595H32.667A3.343,3.343,0,0,0,36-598.333v-23.333A3.343,3.343,0,0,0,32.667-625Z" transform="translate(-6 625)" fill="#747474"/>
    </g>
    <g id="Selection_Control_Checkbox_Off_Enabled-21" data-name="Selection Control / Checkbox / Off / Enabled" transform="translate(138 390)" clip-path="url(#clip-path-3)">
      <path id="Selection_Control_Checkbox_Off_Enabled-22" data-name="Selection Control / Checkbox / Off / Enabled" d="M32.667-621.667v23.333H9.333v-23.333Zm0-3.333H9.333A3.343,3.343,0,0,0,6-621.667v23.333A3.343,3.343,0,0,0,9.333-595H32.667A3.343,3.343,0,0,0,36-598.333v-23.333A3.343,3.343,0,0,0,32.667-625Z" transform="translate(-6 625)" fill="#747474"/>
    </g>
    <g id="Selection_Control_Checkbox_On_Enabled" data-name="Selection Control / Checkbox / On / Enabled" transform="translate(83 280)" clip-path="url(#clip-path-3)">
      <path id="Selection_Control_Checkbox_On_Enabled-2" data-name="Selection Control / Checkbox / On / Enabled" d="M32.667-681H9.333A3.332,3.332,0,0,0,6-677.667v23.333A3.332,3.332,0,0,0,9.333-651H32.667A3.332,3.332,0,0,0,36-654.333v-23.333A3.332,3.332,0,0,0,32.667-681Zm-15,23.333L9.333-666l2.35-2.35,5.983,5.967,12.65-12.65,2.35,2.367Z" transform="translate(-6 681)" fill="#900"/>
    </g>
    <g id="Selection_Control_Checkbox_On_Enabled-3" data-name="Selection Control / Checkbox / On / Enabled" transform="translate(193 335)" clip-path="url(#clip-path-3)">
      <path id="Selection_Control_Checkbox_On_Enabled-4" data-name="Selection Control / Checkbox / On / Enabled" d="M32.667-681H9.333A3.332,3.332,0,0,0,6-677.667v23.333A3.332,3.332,0,0,0,9.333-651H32.667A3.332,3.332,0,0,0,36-654.333v-23.333A3.332,3.332,0,0,0,32.667-681Zm-15,23.333L9.333-666l2.35-2.35,5.983,5.967,12.65-12.65,2.35,2.367Z" transform="translate(-6 681)" fill="#900"/>
    </g>
    <g id="Selection_Control_Checkbox_On_Enabled-5" data-name="Selection Control / Checkbox / On / Enabled" transform="translate(248 280)" clip-path="url(#clip-path-3)">
      <path id="Selection_Control_Checkbox_On_Enabled-6" data-name="Selection Control / Checkbox / On / Enabled" d="M32.667-681H9.333A3.332,3.332,0,0,0,6-677.667v23.333A3.332,3.332,0,0,0,9.333-651H32.667A3.332,3.332,0,0,0,36-654.333v-23.333A3.332,3.332,0,0,0,32.667-681Zm-15,23.333L9.333-666l2.35-2.35,5.983,5.967,12.65-12.65,2.35,2.367Z" transform="translate(-6 681)" fill="#900"/>
    </g>
    <g id="Selection_Control_Checkbox_On_Enabled-7" data-name="Selection Control / Checkbox / On / Enabled" transform="translate(248 335)" clip-path="url(#clip-path-3)">
      <path id="Selection_Control_Checkbox_On_Enabled-8" data-name="Selection Control / Checkbox / On / Enabled" d="M32.667-681H9.333A3.332,3.332,0,0,0,6-677.667v23.333A3.332,3.332,0,0,0,9.333-651H32.667A3.332,3.332,0,0,0,36-654.333v-23.333A3.332,3.332,0,0,0,32.667-681Zm-15,23.333L9.333-666l2.35-2.35,5.983,5.967,12.65-12.65,2.35,2.367Z" transform="translate(-6 681)" fill="#900"/>
    </g>
    <g id="Selection_Control_Checkbox_On_Enabled-9" data-name="Selection Control / Checkbox / On / Enabled" transform="translate(303 335)" clip-path="url(#clip-path-3)">
      <path id="Selection_Control_Checkbox_On_Enabled-10" data-name="Selection Control / Checkbox / On / Enabled" d="M32.667-681H9.333A3.332,3.332,0,0,0,6-677.667v23.333A3.332,3.332,0,0,0,9.333-651H32.667A3.332,3.332,0,0,0,36-654.333v-23.333A3.332,3.332,0,0,0,32.667-681Zm-15,23.333L9.333-666l2.35-2.35,5.983,5.967,12.65-12.65,2.35,2.367Z" transform="translate(-6 681)" fill="#900"/>
    </g>
    <text id="M" transform="translate(98 248)" fill="rgba(0,0,0,0.8)" font-size="35" font-family="Arial-BoldMT, Arial" font-weight="700" letter-spacing="0.03em"><tspan x="-14.578" y="0">M</tspan></text>
    <text id="T" transform="translate(153 248)" fill="rgba(0,0,0,0.8)" font-size="35" font-family="Arial-BoldMT, Arial" font-weight="700" letter-spacing="0.03em"><tspan x="-10.69" y="0">T</tspan></text>
    <text id="O" transform="translate(207 248)" fill="rgba(0,0,0,0.8)" font-size="35" font-family="Arial-BoldMT, Arial" font-weight="700" letter-spacing="0.03em"><tspan x="-13.612" y="0">O</tspan></text>
    <text id="T-2" data-name="T" transform="translate(263 248)" fill="rgba(0,0,0,0.8)" font-size="35" font-family="Arial-BoldMT, Arial" font-weight="700" letter-spacing="0.03em"><tspan x="-10.69" y="0">T</tspan></text>
    <text id="F" transform="translate(318 248)" fill="rgba(0,0,0,0.8)" font-size="35" font-family="Arial-BoldMT, Arial" font-weight="700" letter-spacing="0.03em"><tspan x="-10.69" y="0">F</tspan></text>
    <text id="M-2" data-name="M" transform="translate(43 308)" fill="rgba(0,0,0,0.8)" font-size="35" font-family="Arial-BoldMT, Arial" font-weight="700" letter-spacing="0.03em"><tspan x="-14.578" y="0">M</tspan></text>
    <text id="E" transform="translate(43 363)" fill="rgba(0,0,0,0.8)" font-size="35" font-family="Arial-BoldMT, Arial" font-weight="700" letter-spacing="0.03em"><tspan x="-11.672" y="0">E</tspan></text>
    <text id="A" transform="translate(43 418)" fill="rgba(0,0,0,0.8)" font-size="35" font-family="Arial-BoldMT, Arial" font-weight="700" letter-spacing="0.03em"><tspan x="-12.638" y="0">A</tspan></text>
  </g>
</svg>
